HIERARCHY
ROOT pelvis
{
  OFFSET 0 100 0
  CHANNELS 6 Xposition Yposition Zposition Zrotation Xrotation Yrotation
  JOINT pelvis_right_femur
  {
    OFFSET -10.78128 -3.44521 -0.5502486
    CHANNELS 3 Zrotation Xrotation Yrotation
    JOINT right_femur_tibia
    {
      OFFSET -0.8047443 -44.0398 -0.1307829
      CHANNELS 3 Zrotation Xrotation Yrotation
      JOINT right_tibia_foot
      {
        OFFSET 3.006224 -47.83518 -5
        CHANNELS 3 Zrotation Xrotation Yrotation
        End Site
        {
          OFFSET 0 -5 15
        }
      }
    }
  }
  JOINT pelvis_left_femur
  {
    OFFSET 10.78128 -3.44521 -0.5502486
    CHANNELS 3 Zrotation Xrotation Yrotation
    JOINT left_femur_tibia
    {
      OFFSET 0.8047443 -44.0398 -0.1307829
      CHANNELS 3 Zrotation Xrotation Yrotation
      JOINT left_tibia_foot
      {
        OFFSET -4.370144 -48.10324 -4.275266
        CHANNELS 3 Zrotation Xrotation Yrotation
        End Site
        {
          OFFSET 0 -5 15
        }
      }
    }
  }
  JOINT pelvis_spine1
  {
    OFFSET 0 6.468898 -3.129235
    CHANNELS 3 Zrotation Xrotation Yrotation
    JOINT spine1
    {
      OFFSET 0 23.15396 4.99043
      CHANNELS 3 Zrotation Xrotation Yrotation
      JOINT spine2
      {
        OFFSET 0 20.79997 -5.064912
        CHANNELS 3 Zrotation Xrotation Yrotation
        JOINT neck
        {
          OFFSET 0 14.38658 9.616178
          CHANNELS 3 Zrotation Xrotation Yrotation
          End Site
          {
            OFFSET 0 20 0
          }
        }
      }
      JOINT right_manubrium
      {
        OFFSET -5.722621 16.35077 3.967754
        CHANNELS 3 Zrotation Xrotation Yrotation
        JOINT right_clavicle
        {
          OFFSET -13.16364 1.694482 -4.693211
          CHANNELS 3 Zrotation Xrotation Yrotation
          JOINT right_humerus
          {
            OFFSET -28.5034 -0.3100689 -2.792744
            CHANNELS 3 Zrotation Xrotation Yrotation
            JOINT right_radius
            {
              OFFSET -25.15693 0.02248979 -1.271978
              CHANNELS 3 Zrotation Xrotation Yrotation
              End Site
              {
                OFFSET -15 0 0
              }
            }
          }
        }
      }
      JOINT left_manubrium
      {
        OFFSET 5.722621 16.35077 3.967754
        CHANNELS 3 Zrotation Xrotation Yrotation
        JOINT left_clavicle
        {
          OFFSET 13.16364 1.694482 -4.693211
          CHANNELS 3 Zrotation Xrotation Yrotation
          JOINT left_humerus
          {
            OFFSET 29.39168 -1.063119 -2.237045
            CHANNELS 3 Zrotation Xrotation Yrotation
            JOINT left_radius
            {
              OFFSET 24.59957 -0.9528479 0.9047498
              CHANNELS 3 Zrotation Xrotation Yrotation
              End Site
              {
                OFFSET 15 -0 -0
              }
            }
          }
        }
      }
    }
  }
}
MOTION
Frames: 11
Frame Time: 0.0416666666667
0 103.5113 0 1.226323 -0.2833547 0.09288291 3.404698 -15.81817 10.83438 -0 39.01021 -0 -4.399747 -18.6298 -3.602134 -7.428038 9.046826 -23.13532 -0 6.205823 -0 14.28487 -13.6581 29.35282 -4.261729 -4.10587 4.948753 2.874234 10.11017 -7.732974 1.609213 21.712 6.245191 2.107533 -24.93764 10.16888 6.674596 -20.11063 11.78838 84.72554 37.82391 -16.99184 -0 0 16.8749 -6.419347 9.14905 4.506072 5.539213 -18.37387 -0.7234556 -91.69819 21.05133 20.07376 0 0 -13.77157 14.85584 14.23057 -3.708734
0.3321967 104.3975 1.690836 0.9886897 -0.05550829 0.1567532 3.793484 -17.55422 10.44179 -0 38.06915 -0 -4.67522 -17.43528 -3.354423 -7.2779 9.171679 -22.73753 -0 6.08718 -0 14.10601 -14.08921 28.99454 -4.064381 -3.824815 4.903586 2.867166 10.18225 -7.751256 1.612039 21.59021 6.330449 2.298319 -25.09966 10.11792 6.622543 -20.07116 11.80738 84.87281 37.76968 -17.17308 -0 0 16.64152 -6.654834 9.122334 4.546841 5.780672 -18.76527 -0.8555392 -91.52229 20.80902 19.82216 0 0 -14.38655 15.25929 14.1884 -3.994821
0.6701995 105.1213 3.636168 0.5351601 0.3263523 0.2034776 4.460867 -21.28255 9.253884 -0 35.47492 -0 -5.30832 -14.54631 -2.736209 -6.963446 9.616265 -21.6048 -0 5.763472 -0 13.54941 -15.13454 27.93245 -3.655619 -3.215708 4.749752 2.823893 10.33473 -7.768423 1.582923 21.39363 6.519153 2.702796 -25.28756 9.932893 6.374197 -19.91437 11.83524 85.36342 37.29396 -17.70172 -0 0 15.87129 -7.44652 9.018616 4.754161 6.340386 -19.75582 -1.256507 -90.93827 20.20028 18.9697 0 0 -15.98131 16.08946 14.05177 -4.649133
1.008764 105.6523 5.839002 0.1758012 0.9259266 0.2120994 5.205094 -24.75446 8.436285 -0 31.70741 -0 -5.495825 -12.5175 -2.19722 -6.76975 10.23007 -20.67538 -0 5.555312 -0 13.0006 -16.35239 27.10144 -3.333667 -2.7831 4.744476 2.862124 10.34045 -7.815897 1.588388 21.13324 6.635496 2.992424 -25.53738 9.814291 6.122381 -19.78289 11.78521 85.79255 36.89073 -18.36275 -0 0 15.29622 -7.744748 8.868333 4.726667 6.902795 -20.55911 -1.458462 -90.59398 20.00926 18.35256 0 0 -17.76196 16.38307 13.87323 -4.797735
1.343656 105.9675 8.393001 -0.1031496 1.601369 0.2013179 5.874394 -28.21082 7.481138 -0 27.09799 -0 -5.60872 -10.35435 -1.601976 -6.652005 11.1036 -19.56728 -0 5.554408 -0 12.27667 -17.70943 26.06266 -3.066051 -2.42672 4.748842 2.921126 10.30837 -7.887631 1.553522 20.86436 6.753055 3.284198 -25.68409 9.627615 5.836187 -19.57316 11.69525 86.33194 36.43261 -19.24952 -0 0 14.55583 -8.02846 8.641556 4.654263 7.492425 -21.44394 -1.673653 -90.15505 19.86557 17.5986 0 0 -19.86758 16.44996 13.56313 -4.808277
1.670209 106.085 11.39862 -0.302567 2.314251 0.205616 6.39939 -31.35813 6.399874 -0 22.08757 -0 -5.716654 -8.048527 -0.9837594 -6.614534 12.23434 -18.31348 -0 5.992542 -0 11.24912 -19.08784 24.71826 -2.8458 -2.180032 4.72962 2.999984 10.23304 -7.9855 1.465613 20.62289 6.881734 3.565504 -25.71619 9.381432 5.529395 -19.26966 11.56009 86.98555 35.91189 -20.36931 -0 0 13.62721 -8.291709 8.327809 4.553112 8.018762 -22.35827 -1.911487 -89.67722 19.88526 16.82992 0 0 -22.12355 16.14858 13.16343 -4.498044
1.982868 106.0592 14.97833 -0.4482914 2.977704 0.2831941 6.689119 -33.87475 5.132314 -0 17.19236 -0 -5.927238 -5.571138 -0.3735123 -6.627382 13.59341 -16.90085 -0 7.169616 -0 9.769749 -20.28914 22.89843 -2.628283 -2.060985 4.624992 3.080545 10.11437 -8.094386 1.323603 20.4711 7.025356 3.801146 -25.60303 9.105612 5.167319 -18.84134 11.36969 87.77517 35.21895 -21.68114 -0 0 12.44207 -8.624915 7.960928 4.488256 8.380898 -23.24731 -2.205831 -89.16006 20.08401 16.09377 0 0 -24.28847 15.46853 12.72131 -3.82187
2.274116 105.9982 19.25256 -0.6001983 3.498163 0.5088147 6.732956 -35.31351 3.773697 -0 13.15276 -0 -6.309201 -3.15324 0.1352399 -6.619749 15.05524 -15.40526 -0 9.495249 -0 7.772366 -20.97683 20.53726 -2.339583 -2.093397 4.375359 3.147204 9.942528 -8.195463 1.153992 20.47273 7.165922 3.911315 -25.354 8.886124 4.722881 -18.26948 11.11216 88.66268 34.29646 -23.03996 -0 0 11.01616 -9.056482 7.65078 4.513046 8.442063 -23.95779 -2.547266 -88.65367 20.47089 15.49895 0 0 -25.93269 14.4697 12.31478 -2.790519
2.533143 106.0732 24.30083 -0.8528897 3.753529 0.9477308 6.660604 -35.20685 2.583704 -0 10.89826 -0 -6.908138 -1.244491 0.3859865 -6.455689 16.35496 -13.95879 -0 13.45448 -0 5.369085 -20.67481 17.75143 -1.874342 -2.274131 3.927071 3.179083 9.727699 -8.27262 1.002966 20.67435 7.261804 3.796049 -25.003 8.826208 4.195586 -17.55306 10.79782 89.55567 33.19707 -24.18345 -0 0 9.465286 -9.588518 7.590241 4.675966 8.067529 -24.27504 -2.897174 -88.22052 20.95563 15.1421 0 0 -26.4923 13.35823 12.03973 -1.580758
2.746951 106.5072 30.08737 -1.312715 3.602265 1.588023 6.778867 -33.31533 1.964761 -0 11.24479 -0 -7.74193 -0.4090932 0.1987148 -5.949614 17.04133 -12.72069 -0 19.47859 -0 2.923437 -18.91823 14.96312 -1.121495 -2.520843 3.283488 3.152288 9.541014 -8.322198 0.915773 21.05064 7.259324 3.412222 -24.61309 8.964613 3.668718 -16.74677 10.4998 90.30426 32.18118 -24.78 -0 0 8.072793 -10.17404 7.996259 4.979752 7.212756 -24.01475 -3.201394 -87.96268 21.35155 15.09981 0 0 -25.45992 12.4362 11.99479 -0.5170573
2.909026 107.5048 36.38087 -1.999991 2.918184 2.242348 7.39771 -29.94924 2.176017 -0 14.06682 -0 -8.789301 -0.9205878 -0.4507454 -5.00389 16.5075 -11.73589 -0 27.66976 -0 0.9181558 -15.64424 12.82025 -0.06212281 -2.620192 2.604461 3.044187 9.558734 -8.340029 0.886592 21.44968 7.140916 2.912439 -24.23952 9.143676 3.350915 -16.00953 10.38616 90.72323 31.68079 -24.60247 -0 0 7.27662 -10.74103 8.934862 5.328915 6.064126 -23.2459 -3.460531 -88.04682 21.46117 15.4253 0 0 -22.82601 11.91047 12.18772 0.07971083
